<svg width="18" height="18" viewBox="0 0 18 18" fill="none" xmlns="http://www.w3.org/2000/svg">
<mask id="mask0_12_1234" style="mask-type:luminance" maskUnits="userSpaceOnUse" x="0" y="0" width="18" height="18">
<rect width="18" height="18" fill="white"/>
</mask>
<g mask="url(#mask0_12_1234)">
<path fill-rule="evenodd" clip-rule="evenodd" d="M16.3541 7.53113H15.75V7.5H9V10.5H13.2386C12.6203 12.2464 10.9586 13.5 9 13.5C6.51488 13.5 4.5 11.4851 4.5 9C4.5 6.51488 6.51488 4.5 9 4.5C10.1471 4.5 11.1908 4.93275 11.9854 5.63963L14.1067 3.51825C12.7673 2.26987 10.9755 1.5 9 1.5C4.85813 1.5 1.5 4.85813 1.5 9C1.5 13.1419 4.85813 16.5 9 16.5C13.1419 16.5 16.5 13.1419 16.5 9C16.5 8.49713 16.4482 8.00625 16.3541 7.53113Z" fill="#FFC107"/>
<path fill-rule="evenodd" clip-rule="evenodd" d="M2.36523 5.50912L4.82936 7.31625C5.49611 5.6655 7.11086 4.5 9.00049 4.5C10.1476 4.5 11.1912 4.93275 11.9859 5.63962L14.1072 3.51825C12.7677 2.26987 10.976 1.5 9.00049 1.5C6.11974 1.5 3.62148 3.12637 2.36523 5.50912Z" fill="#FF3D00"/>
<path fill-rule="evenodd" clip-rule="evenodd" d="M9.00012 16.5003C10.9374 16.5003 12.6976 15.7589 14.0285 14.5533L11.7072 12.589C10.9542 13.1594 10.0182 13.5003 9.00012 13.5003C7.04937 13.5003 5.39299 12.2564 4.76899 10.5205L2.32324 12.4049C3.56449 14.8338 6.08524 16.5003 9.00012 16.5003Z" fill="#4CAF50"/>
<path fill-rule="evenodd" clip-rule="evenodd" d="M16.3541 7.53113H15.75V7.5H9V10.5H13.2386C12.9416 11.3389 12.402 12.0623 11.706 12.5891C11.7064 12.5888 11.7068 12.5887 11.7071 12.5884L14.0284 14.5526C13.8641 14.7019 16.5 12.75 16.5 9C16.5 8.49713 16.4482 8.00625 16.3541 7.53113Z" fill="#1976D2"/>
</g>
</svg>
