<svg width="20" height="17" viewBox="0 0 20 17" fill="none" xmlns="http://www.w3.org/2000/svg">
<g clip-path="url(#clip0_212_1127)">
<path d="M19.2993 7.26085C19.3013 7.24693 19.3013 7.23285 19.2993 7.21893C19.3012 7.20759 19.3012 7.19602 19.2993 7.18465L19.1633 6.20554C19.1437 6.0884 19.0912 5.97891 19.0118 5.88933L18.9884 5.86266L18.9457 5.82075L16.5907 3.83205L16.6568 3.89682C16.6028 3.83342 16.5349 3.78271 16.4583 3.74843C16.3816 3.71414 16.298 3.69715 16.2138 3.69871H15.4988C15.3825 3.69645 15.2689 3.73269 15.1762 3.80157C15.0789 3.73311 14.9618 3.69705 14.842 3.69871H14.127C14.0332 3.69722 13.9407 3.72003 13.8588 3.76486C13.7769 3.80968 13.7086 3.87492 13.6607 3.95396C13.5868 4.06686 13.559 4.20288 13.5829 4.33494L13.6723 4.95212C13.6131 4.91921 13.5461 4.90214 13.478 4.9026H10.0155C9.89128 4.90336 9.76991 4.93906 9.66576 5.00546C9.56504 5.06726 9.48419 5.15576 9.4326 5.26071L9.16445 5.03594C9.05892 4.94021 8.91962 4.88832 8.77586 4.89117H3.34313C3.21846 4.89339 3.09656 4.92754 2.98951 4.99022C2.84305 5.07426 2.73572 5.21091 2.69027 5.3712L0.964859 11.0287C0.93262 11.1219 0.929448 11.2225 0.955751 11.3175C0.982053 11.4125 1.03664 11.4976 1.11253 11.5621C1.13231 11.5785 1.15307 11.5938 1.17471 11.6078C1.17471 11.6078 1.13973 11.5849 1.1203 11.5659L3.47527 13.5584C3.57489 13.6483 3.70513 13.6986 3.84053 13.6994H9.31602C9.44107 13.6962 9.56305 13.6607 9.66966 13.5965C9.72995 13.5642 9.78389 13.5216 9.82898 13.4708L9.84841 13.4441L9.8795 13.406L9.90281 13.3641L10.1593 13.5813C10.2575 13.6676 10.3849 13.7151 10.5168 13.7146H16.0039C16.1289 13.7105 16.2506 13.6751 16.3576 13.6117C16.4165 13.5775 16.4701 13.5351 16.5169 13.486L16.5363 13.4593L16.5674 13.4213C16.5839 13.3971 16.5983 13.3717 16.6102 13.345C16.6229 13.322 16.6333 13.2977 16.6412 13.2727L18.2151 8.10662V8.0609C18.217 8.04317 18.217 8.02529 18.2151 8.00756V7.97329C18.217 7.96192 18.217 7.95035 18.2151 7.93898C18.2169 7.91489 18.2169 7.8907 18.2151 7.86659H18.7203C18.7642 7.87055 18.8085 7.87055 18.8524 7.86659H18.8874C18.9158 7.85828 18.9432 7.84676 18.969 7.83231H19.0079L19.0778 7.77898L19.1089 7.75611L19.1633 7.68753V7.66469L19.2022 7.59991C19.2 7.58732 19.2 7.57442 19.2022 7.56183C19.2001 7.55564 19.2001 7.54896 19.2022 7.54277C19.2104 7.52044 19.2169 7.4975 19.2216 7.47419C19.2198 7.46668 19.2198 7.45884 19.2216 7.45133C19.2197 7.43998 19.2197 7.42839 19.2216 7.41705C19.2216 7.41705 19.2993 7.26846 19.2993 7.26085Z" fill="black"/>
<path d="M8.93514 5.32548C8.95578 5.34377 8.97019 5.36782 8.97643 5.39438C8.98271 5.42095 8.98049 5.44876 8.97013 5.47406L7.24861 11.1278C7.22693 11.1895 7.18258 11.2411 7.12425 11.2725C7.07679 11.3037 7.02186 11.322 6.96491 11.3259H1.49334C1.44661 11.3237 1.40234 11.3047 1.36898 11.2725C1.34914 11.2545 1.33521 11.2312 1.32898 11.2054C1.32275 11.1796 1.3245 11.1526 1.33401 11.1278L3.05942 5.47406C3.0793 5.41155 3.12226 5.35857 3.17989 5.32548C3.22813 5.29659 3.28281 5.27959 3.33922 5.27595H8.81079C8.85715 5.27639 8.90161 5.2941 8.93514 5.32548ZM6.07888 9.98864L7.1087 6.61318H4.22525L3.19931 9.98864H6.07888ZM14.158 5.38262C14.1767 5.40389 14.2 5.42076 14.2263 5.43197C14.2525 5.44318 14.281 5.44845 14.3096 5.44739H15.0207C15.0478 5.44765 15.0745 5.44114 15.0983 5.42847C15.1221 5.41581 15.1422 5.3974 15.1567 5.375C15.1694 5.3575 15.1783 5.3377 15.183 5.31675C15.1876 5.29581 15.188 5.27416 15.1839 5.25309L15.044 4.24731C15.0307 4.20076 15.0068 4.15778 14.9741 4.12159C14.9554 4.10032 14.9321 4.08345 14.9059 4.07224C14.8796 4.06103 14.8511 4.05576 14.8225 4.05682H14.1114C14.0843 4.05656 14.0576 4.06307 14.0338 4.07574C14.01 4.08841 13.9899 4.10681 13.9754 4.12921C13.9482 4.18255 13.9365 4.21683 13.9482 4.24731L14.092 5.25309C14.0993 5.30207 14.1225 5.34745 14.158 5.38262ZM16.4158 4.23969C16.4025 4.19314 16.3786 4.15016 16.3459 4.11397C16.328 4.09278 16.3054 4.07592 16.2797 4.06468C16.2541 4.05345 16.2262 4.04815 16.1982 4.0492H15.4832C15.4565 4.04846 15.4302 4.05479 15.4069 4.06754C15.3837 4.08028 15.3644 4.09896 15.3511 4.12159C15.3252 4.15539 15.314 4.19784 15.32 4.23969L15.4637 5.24547C15.4728 5.29393 15.4957 5.33886 15.5298 5.375C15.5488 5.39586 15.5722 5.41244 15.5984 5.42362C15.6245 5.4348 15.6528 5.4403 15.6814 5.43977H16.3964C16.423 5.44011 16.4491 5.43361 16.4723 5.4209C16.4955 5.4082 16.5149 5.38975 16.5285 5.36739C16.5421 5.35034 16.5515 5.33054 16.5562 5.30945C16.5609 5.28835 16.5607 5.26649 16.5557 5.24547L16.4158 4.23969ZM13.5324 5.7636L13.4624 5.26833H10.0155C9.96136 5.27125 9.909 5.28836 9.86391 5.31786C9.8353 5.33316 9.81038 5.35437 9.79092 5.38002C9.77149 5.40567 9.75794 5.43515 9.75124 5.46644L9.46366 6.41126C9.45218 6.43487 9.44825 6.46136 9.45241 6.4872C9.45659 6.51304 9.46863 6.53703 9.48697 6.55604C9.51974 6.58623 9.56251 6.60384 9.60745 6.60557H13.7966L12.7668 9.98103H8.58929C8.53542 9.98223 8.48296 9.99806 8.43775 10.0267C8.38278 10.061 8.34264 10.1139 8.32504 10.1753L8.03359 11.1202C8.02408 11.1444 8.02158 11.1707 8.02637 11.1963C8.03119 11.2218 8.04308 11.2456 8.06078 11.2649C8.09253 11.2971 8.13563 11.3162 8.18125 11.3182H13.6684C13.7251 11.3135 13.7798 11.2952 13.8277 11.2649C13.8851 11.2333 13.9281 11.1816 13.9482 11.1202L15.5259 5.95409H13.75C13.7218 5.95463 13.6938 5.94951 13.6678 5.93902C13.6417 5.92854 13.6181 5.91291 13.5984 5.89313C13.5663 5.85858 13.5436 5.81666 13.5324 5.77122V5.7636Z" fill="white"/>
</g>
<defs>
<clipPath id="clip0_212_1127">
<rect width="18.3627" height="10.016" fill="white" transform="translate(0.93811 3.69861)"/>
</clipPath>
</defs>
</svg>
