<svg width="17" height="17" viewBox="0 0 17 17" fill="none" xmlns="http://www.w3.org/2000/svg">
<g clip-path="url(#clip0_212_1131)">
<path d="M15.3939 5.22257C15.3939 5.23386 15.3939 5.24797 15.3909 5.25644C15.3762 5.36651 15.3762 5.47658 15.385 5.58948C15.3909 5.6177 15.3968 5.64592 15.4203 5.6685C15.4586 5.71083 15.5174 5.70237 15.5409 5.65157C15.5527 5.62617 15.5527 5.60076 15.5468 5.57536C15.5174 5.46811 15.5115 5.35522 15.5086 5.24515C15.5086 5.23951 15.5086 5.23104 15.5086 5.22257C15.5409 5.21975 15.5703 5.21693 15.5968 5.21693C15.6174 5.21411 15.635 5.21128 15.6497 5.20281C15.6938 5.18024 15.6938 5.13226 15.6468 5.10968C15.6291 5.10121 15.6056 5.09839 15.585 5.09839C15.5115 5.10121 15.438 5.10121 15.3645 5.10121C15.338 5.10121 15.3115 5.10404 15.2851 5.10686C15.2704 5.10968 15.2527 5.10968 15.241 5.11815C15.2204 5.12661 15.2086 5.14072 15.2086 5.16048C15.2116 5.18024 15.2204 5.19153 15.241 5.19999C15.2527 5.20846 15.2674 5.21128 15.2821 5.21128C15.3174 5.21411 15.3556 5.21975 15.3939 5.22257ZM16.2025 5.3524C16.2025 5.35522 16.2055 5.35804 16.2055 5.35804C16.2172 5.43425 16.229 5.50763 16.2378 5.58101C16.2408 5.60641 16.2437 5.62899 16.2614 5.64874C16.2996 5.69672 16.3584 5.69108 16.3848 5.64028C16.3966 5.61488 16.3996 5.58948 16.3937 5.56125C16.376 5.47658 16.3672 5.39191 16.3496 5.31006C16.3378 5.25926 16.3231 5.21128 16.3084 5.16613C16.2996 5.1379 16.279 5.11814 16.2437 5.11532C16.2084 5.10968 16.182 5.12661 16.1672 5.15201C16.1496 5.17459 16.1349 5.19717 16.1231 5.22257C16.1026 5.26773 16.0849 5.31289 16.0614 5.35522C16.0584 5.36651 16.0555 5.37498 16.0496 5.38344C16.0467 5.3778 16.0438 5.37498 16.0438 5.37498C16.0055 5.30442 15.9702 5.23386 15.932 5.16613C15.9261 5.16048 15.9232 5.15484 15.9202 5.14919C15.9026 5.12379 15.882 5.10968 15.8497 5.10968C15.8203 5.1125 15.7967 5.12944 15.782 5.15484C15.7761 5.16613 15.7761 5.17459 15.7732 5.18588C15.7614 5.2762 15.7467 5.36651 15.735 5.45683C15.7291 5.50763 15.7262 5.55843 15.7262 5.60923C15.7232 5.62052 15.7262 5.63463 15.732 5.64592C15.7379 5.6685 15.7556 5.68261 15.7791 5.68543C15.8085 5.68826 15.8291 5.67979 15.8379 5.65721C15.8467 5.64028 15.8497 5.62617 15.8526 5.61205C15.8644 5.56125 15.8732 5.51327 15.882 5.46529C15.8879 5.43707 15.8908 5.41449 15.8997 5.38344C15.9055 5.39473 15.9114 5.4032 15.9173 5.41167C15.9438 5.44554 15.9702 5.4794 16.0026 5.50763C16.0349 5.5302 16.0614 5.52738 16.0878 5.50198C16.0937 5.49634 16.0967 5.49352 16.1026 5.48787C16.129 5.44836 16.1614 5.40885 16.1878 5.36933C16.1937 5.36369 16.1967 5.35804 16.2025 5.3524Z" fill="#3A3B7B"/>
<path d="M9.42701 5.27798C9.40656 5.33162 9.40266 5.37026 9.4121 5.40238C9.42253 5.44606 9.44958 5.46035 9.4863 5.44925C9.8317 5.36727 10.5891 5.59995 10.8695 5.6648C10.9356 5.67842 10.9894 5.59648 10.9443 5.52302C10.8784 5.45188 10.1214 5.1473 9.83253 5.13069C9.7193 5.12455 9.51688 5.09668 9.42701 5.27798Z" fill="#3A3B7B"/>
<path d="M12.387 4.29201C12.4238 4.3124 12.4444 4.33185 12.4545 4.35359C12.4697 4.3821 12.4617 4.40182 12.4363 4.41189C12.208 4.51883 11.9041 4.97927 11.7815 5.13806C11.7518 5.17459 11.6832 5.15337 11.6729 5.09329C11.675 5.02537 11.9443 4.5257 12.0946 4.3896C12.1537 4.33647 12.2512 4.23221 12.387 4.29201Z" fill="#3A3B7B"/>
<path d="M10.5688 4.06543C10.6131 4.03344 10.659 4.02223 10.6825 4.04302C11.027 4.32577 11.2097 4.77353 11.3228 5.18345C11.327 5.193 11.3273 5.2067 11.3239 5.221C11.3225 5.23322 11.3132 5.24613 11.2984 5.25612C11.2826 5.26714 11.269 5.2705 11.2626 5.261C11.1117 5.06391 10.2494 4.29706 10.5688 4.06543Z" fill="#3A3B7B"/>
<path d="M3.27414 8.96762C3.3567 8.90863 3.44646 8.85951 3.54144 8.8214C3.64081 8.79414 3.74673 8.79865 3.84319 8.83429C3.93963 8.86994 4.02138 8.93475 4.07603 9.01894C4.12492 9.10291 4.14404 9.19986 4.13055 9.29519C4.11706 9.39049 4.07166 9.47901 4.00118 9.54743C3.94655 9.60288 3.88453 9.65118 3.81676 9.6911C3.51472 9.87838 3.20998 10.0554 2.90527 10.2427C2.84291 10.2895 2.77677 10.3316 2.70746 10.3684C2.60204 10.4188 2.48157 10.4324 2.36686 10.4066C2.25216 10.3808 2.15045 10.3174 2.07931 10.2273C2.02613 10.1635 1.98125 10.0937 1.94566 10.0195C1.65698 9.43712 1.3576 8.85731 1.07961 8.26468C0.951305 8.00815 0.847059 7.7131 0.745485 7.42834C0.70154 7.3456 0.692958 7.24968 0.721568 7.16096C0.750177 7.07224 0.813721 6.99773 0.898682 6.95328C0.983643 6.90883 1.08332 6.89796 1.17651 6.92295C1.2697 6.94795 1.34905 7.00686 1.39769 7.08713C1.5472 7.27783 1.67955 7.48038 1.7933 7.6926C2.08198 8.20568 2.3573 8.71877 2.63529 9.21648C2.65148 9.24398 2.66933 9.27052 2.68875 9.296C2.89799 9.21157 3.09478 9.10117 3.27414 8.96762Z" fill="#3A3B7B"/>
<path d="M6.25891 8.78863C5.5987 9.53004 4.49207 9.34276 3.93609 8.38841C3.54048 7.71112 3.47099 6.59257 4.3317 5.88707C4.51549 5.73936 4.73527 5.63875 4.97053 5.5946C5.25899 5.55491 5.55314 5.60375 5.81094 5.73415C6.06873 5.86455 6.27698 6.06982 6.40594 6.32064C6.87638 7.14159 6.80956 8.1883 6.25891 8.78863ZM5.99162 7.05949C5.92147 6.85775 5.78076 6.68552 5.59334 6.57204C5.48728 6.49949 5.35841 6.46422 5.22844 6.47216C5.09844 6.48011 4.97529 6.53078 4.87966 6.61565C4.49743 6.94148 4.41722 7.7137 4.69521 8.17292C4.73065 8.2478 4.78268 8.31434 4.84771 8.3679C4.91274 8.42146 4.98918 8.46074 5.07168 8.48296C5.15417 8.50521 5.24072 8.50988 5.3253 8.49665C5.40988 8.4834 5.4904 8.4526 5.56128 8.40637C5.76848 8.25218 5.92049 8.03987 5.99617 7.79896C6.07187 7.55803 6.06747 7.30047 5.98361 7.06207L5.99162 7.05949Z" fill="#3A3B7B"/>
<path d="M8.95334 7.38269C8.88576 7.39664 8.81593 7.39748 8.74798 7.38513C8.68006 7.37279 8.61536 7.34755 8.55775 7.31086C8.50734 7.28318 8.46394 7.24514 8.43067 7.19943C8.39743 7.15373 8.37515 7.10153 8.36544 7.04656C8.35571 6.99162 8.35883 6.93529 8.3745 6.88162C8.39019 6.82795 8.4181 6.77828 8.45618 6.73619C8.52254 6.6516 8.61673 6.59104 8.72348 6.56431C9.00219 6.48667 9.2891 6.43934 9.57884 6.42321C9.6425 6.4161 9.70699 6.42127 9.76853 6.43842C9.83008 6.45558 9.88743 6.48434 9.93724 6.52307C9.98702 6.56178 10.0283 6.60966 10.0585 6.66388C10.0888 6.7181 10.1074 6.77758 10.1134 6.83882C10.197 7.13962 10.2061 7.45502 10.1402 7.75983C9.8996 8.74496 9.07096 9.0836 8.14076 8.76805C7.87965 8.68368 7.65071 8.52648 7.48321 8.31653C7.2598 8.06369 7.1014 7.76405 7.02077 7.4417C6.95545 7.15465 6.9626 6.85679 7.04166 6.57295C7.12071 6.28911 7.26935 6.02753 7.47518 5.81006C7.67052 5.57369 7.92405 5.38767 8.21294 5.26874C8.39548 5.17217 8.60909 5.14471 8.81169 5.19178C8.85765 5.20398 8.89936 5.22777 8.93252 5.26067C8.96567 5.29357 8.98905 5.33438 9.00024 5.37888C9.01142 5.42337 9.00999 5.46993 8.99611 5.51372C8.98222 5.55751 8.95639 5.59693 8.92129 5.62791C8.85453 5.6859 8.78201 5.73746 8.70476 5.78184C8.46712 5.92708 8.26033 6.11425 8.09532 6.33341C7.98716 6.47523 7.91267 6.63809 7.87711 6.8105C7.84154 6.9829 7.84578 7.1607 7.88951 7.33139C7.95013 7.56412 8.08465 7.77301 8.27441 7.92913C8.86246 8.44224 9.62694 7.94709 9.49329 7.24672C9.29818 7.29291 9.12709 7.34165 8.95334 7.38269Z" fill="#3A3B7B"/>
<path d="M12.5458 8.82962C11.6771 9.34273 10.6881 8.82962 10.4716 7.75213C10.3139 6.98249 10.6132 5.90498 11.6611 5.4945C11.884 5.40905 12.1258 5.37905 12.364 5.40728C12.6503 5.45757 12.9129 5.59282 13.1148 5.79396C13.3166 5.9951 13.4477 6.25197 13.4894 6.5284C13.6658 7.44426 13.2648 8.42171 12.5458 8.82962ZM12.8479 7.10305C12.8476 6.88994 12.769 6.68371 12.626 6.52069C12.5495 6.41987 12.439 6.34763 12.3132 6.31627C12.1875 6.28493 12.0543 6.29642 11.9364 6.34881C11.4659 6.54378 11.1345 7.25185 11.2547 7.77266C11.2639 7.85439 11.2916 7.93321 11.3358 8.0036C11.3801 8.07399 11.4398 8.13426 11.5108 8.18021C11.5818 8.22614 11.6625 8.25663 11.747 8.26955C11.8316 8.28245 11.9181 8.27747 12.0005 8.25496C12.2492 8.17158 12.4645 8.01577 12.6164 7.80925C12.7683 7.60274 12.8492 7.35584 12.8479 7.10305Z" fill="#3A3B7B"/>
<path d="M14.3679 9.0452C14.3548 9.13909 14.3033 9.22414 14.2249 9.28164C14.1464 9.33912 14.0474 9.36436 13.9495 9.35177C13.8517 9.33918 13.7631 9.2898 13.7032 9.2145C13.6433 9.13922 13.617 9.04416 13.6301 8.95027C13.6432 8.85637 13.6947 8.77133 13.7731 8.71383C13.8516 8.65633 13.9506 8.63111 14.0485 8.6437C14.1463 8.65628 14.2349 8.70564 14.2948 8.78094C14.3547 8.85624 14.381 8.9513 14.3679 9.0452ZM14.1353 5.58436C14.1862 5.50984 14.2607 5.45309 14.3479 5.42258C14.4351 5.39206 14.5303 5.38942 14.6191 5.41504C14.7095 5.43674 14.7893 5.48757 14.8453 5.55903C14.9013 5.63048 14.9299 5.71822 14.9265 5.80756C14.9147 5.95084 14.8924 6.09316 14.8597 6.23342C14.7715 6.70804 14.686 7.18264 14.5924 7.65214C14.5496 7.83942 14.4935 8.019 14.432 8.20884C14.4106 8.26818 14.3749 8.32181 14.3278 8.36534C14.2985 8.39808 14.2611 8.42319 14.219 8.43835C14.1769 8.45353 14.1315 8.45826 14.087 8.45212C14.0425 8.44598 14.0003 8.42917 13.9644 8.40325C13.9284 8.37731 13.8999 8.34309 13.8814 8.30377C13.8496 8.23322 13.8324 8.15741 13.8306 8.08057C13.8306 7.76245 13.8306 7.44177 13.852 7.12107C13.8883 6.66342 13.9598 6.20895 14.0658 5.76138C14.0783 5.70141 14.1018 5.64407 14.1353 5.59206V5.58436Z" fill="#3A3B7B"/>
<path fill-rule="evenodd" clip-rule="evenodd" d="M2.14479 11.1067C2.11323 11.1744 2.10457 11.2497 2.12 11.3223C2.13026 11.4179 2.15279 11.512 2.18709 11.6023C2.22991 11.713 2.27783 11.8224 2.33691 11.9572C2.35049 11.9883 2.36469 12.0207 2.37955 12.0547C2.45923 12.2374 2.55919 12.4709 2.69254 12.8088C2.73028 12.9048 2.7638 13.0015 2.79755 13.099C2.81118 13.1383 2.82487 13.1778 2.83887 13.2174C2.88908 13.3582 2.97546 13.4846 3.08997 13.5848C3.13859 13.6399 3.20308 13.68 3.2754 13.7001C3.34913 13.7206 3.42754 13.7193 3.50049 13.6964C3.57343 13.6735 3.6375 13.63 3.68437 13.5717C3.73032 13.5145 3.75765 13.4456 3.76296 13.3736C3.79278 13.2333 3.7826 13.0879 3.73346 12.9527C3.65548 12.7282 3.56664 12.5033 3.46419 12.2834L3.46372 12.2824C3.29519 11.9384 3.12388 11.5967 2.94447 11.2549L2.94313 11.2525C2.8906 11.1634 2.82235 11.0838 2.74142 11.0172C2.68889 10.9578 2.61642 10.9177 2.53639 10.9039C2.45466 10.8898 2.37036 10.904 2.29855 10.944C2.23062 10.9812 2.17677 11.0382 2.14479 11.1067Z" fill="#3A3B7B"/>
<path fill-rule="evenodd" clip-rule="evenodd" d="M4.7188 10.2596C4.45455 10.1939 4.17858 10.1843 3.91011 10.2315C3.70218 10.2512 3.49767 10.2972 3.35566 10.3884C3.28343 10.4348 3.22504 10.4944 3.19255 10.5701C3.15989 10.6463 3.15572 10.7334 3.18249 10.8304C3.23136 11.0082 3.29482 11.181 3.35806 11.3533L3.3683 11.3812L3.36855 11.3818C3.55896 11.8823 3.75118 12.3811 3.94515 12.8781C3.96777 12.9565 3.99976 13.032 4.04047 13.1033L4.04123 13.1046C4.09501 13.1932 4.16398 13.2724 4.24524 13.3389C4.28589 13.3755 4.33614 13.4008 4.39064 13.4121C4.44567 13.4235 4.5029 13.4202 4.5561 13.4025C4.60931 13.3848 4.65644 13.3535 4.69235 13.3118C4.72768 13.2709 4.75081 13.2215 4.75931 13.169C4.79437 13.0264 4.78313 12.8769 4.72709 12.7405C4.70961 12.6947 4.69589 12.6478 4.68143 12.5984C4.67661 12.5819 4.67172 12.5652 4.66657 12.5481C5.11058 12.3816 5.58301 12.1576 5.74914 11.6365C5.81419 11.4564 5.81962 11.2615 5.76465 11.0783C5.70964 10.8949 5.59677 10.7324 5.4416 10.6131C5.23042 10.4461 4.98372 10.3254 4.7188 10.2596ZM3.98633 10.8987C3.99507 10.8963 4.00388 10.894 4.01272 10.8919C4.30178 10.8483 4.59752 10.9064 4.8455 11.0555C4.95478 11.1285 4.99955 11.2095 5.00723 11.2875C5.01517 11.3678 4.98475 11.4548 4.92364 11.5385C4.80817 11.6965 4.59746 11.8229 4.40712 11.8465C4.26836 11.5398 4.12744 11.2207 3.98633 10.8987Z" fill="#3A3B7B"/>
<path d="M6.48057 9.69812C6.79526 9.55863 7.18506 9.53454 7.49009 9.63262C7.56691 9.65409 7.63355 9.70054 7.67863 9.76403C7.72342 9.82712 7.74409 9.90314 7.73719 9.97915C7.73674 10.0285 7.72412 10.077 7.70038 10.1208C7.67621 10.1654 7.64122 10.2037 7.59836 10.2326C7.5555 10.2614 7.50602 10.28 7.45413 10.2866C7.40221 10.2933 7.34942 10.2878 7.30017 10.2707L7.29643 10.2694L7.29291 10.2676C7.26771 10.255 7.24095 10.2455 7.21326 10.2392L7.21151 10.2389C6.99694 10.1842 6.79454 10.2748 6.72061 10.3862C6.68535 10.4393 6.68098 10.4929 6.71034 10.5416C6.74179 10.5939 6.81893 10.6525 6.97502 10.6942C7.01794 10.7055 7.06195 10.7164 7.10658 10.7275C7.23001 10.7582 7.35828 10.7901 7.48231 10.8342L7.48278 10.8344C8.05499 11.0434 8.26806 11.4761 8.19512 11.8832C8.12296 12.2857 7.77269 12.6521 7.24597 12.7385C7.0543 12.7792 6.85484 12.7713 6.66732 12.7154C6.47934 12.6594 6.30989 12.5571 6.17581 12.4188L6.17232 12.4151C6.12999 12.363 6.10153 12.3018 6.0889 12.2368C6.07729 12.1782 6.08341 12.1176 6.1065 12.0621C6.12946 12.007 6.16828 11.9593 6.21838 11.9246C6.27131 11.8852 6.33511 11.8616 6.40189 11.8566C6.46844 11.8517 6.53504 11.8656 6.59348 11.8966C6.65186 11.9236 6.70615 11.9582 6.75488 11.9992L6.7558 12C6.84202 12.0756 6.94632 12.0954 7.04635 12.0771C7.14783 12.0586 7.24326 12.0009 7.30463 11.9245C7.36561 11.8485 7.39009 11.7582 7.36103 11.6706C7.3318 11.5823 7.24391 11.4834 7.05079 11.4008C7.0003 11.3802 6.94796 11.3636 6.89351 11.3475C6.87883 11.3431 6.8639 11.3388 6.84879 11.3344C6.80853 11.3226 6.7671 11.3106 6.72648 11.2972C6.69851 11.2881 6.67075 11.2794 6.64327 11.2708C6.56815 11.2473 6.49492 11.2244 6.42444 11.1937C6.27104 11.1436 6.13851 11.0474 6.04658 10.9192C5.95427 10.7906 5.90782 10.6368 5.91414 10.4807C5.91464 10.1004 6.1642 9.83838 6.48057 9.69812Z" fill="#3A3B7B"/>
<path d="M10.4701 9.65752C10.409 9.62892 10.3416 9.61534 10.2737 9.618C10.2059 9.62069 10.1398 9.63952 10.0814 9.67286C10.0235 9.70596 9.9749 9.7523 9.9401 9.80777C9.90821 9.85449 9.88613 9.90673 9.87512 9.96159C9.86411 10.0164 9.86438 10.0727 9.87588 10.1274C9.88725 10.1977 9.89984 10.266 9.91229 10.3334C9.93289 10.445 9.95293 10.554 9.96615 10.6652L9.96665 10.668C9.99675 10.8424 10.0125 11.0187 10.0139 11.1954L10.0141 11.1979C10.0243 11.3887 9.9566 11.5758 9.82535 11.7195L9.82327 11.7221C9.78056 11.7746 9.72347 11.8147 9.65835 11.8379C9.59325 11.861 9.52273 11.8663 9.45465 11.8532C9.38657 11.8401 9.32364 11.8091 9.27289 11.7636C9.22214 11.7181 9.18553 11.6598 9.16726 11.5955C9.12826 11.4601 9.10569 11.3207 9.09995 11.1803L9.16657 10.1622C9.16756 10.149 9.16868 10.1353 9.16982 10.1215C9.17235 10.0906 9.17495 10.0591 9.17603 10.0298C9.1776 9.98654 9.17625 9.94209 9.16576 9.90002C9.15502 9.85702 9.1346 9.81611 9.09838 9.78128C9.06251 9.7468 9.01409 9.72136 8.95316 9.70404C8.84298 9.67343 8.74982 9.6744 8.67219 9.70602C8.59452 9.73764 8.5413 9.79635 8.50364 9.86417C8.46627 9.93142 8.44226 10.011 8.4241 10.0908C8.41063 10.1499 8.3998 10.2121 8.38952 10.2712C8.38595 10.2916 8.38248 10.3116 8.37896 10.331L8.37887 10.3316C8.32381 10.6558 8.30743 10.9851 8.33002 11.3129C8.33424 11.4901 8.37273 11.6649 8.44356 11.8286C8.52348 12.0397 8.66822 12.2227 8.8587 12.3533C9.04958 12.4842 9.27735 12.5563 9.51188 12.5601C9.7464 12.5639 9.9766 12.4992 10.172 12.3746C10.3671 12.2502 10.5182 12.072 10.6055 11.8634C10.7276 11.5977 10.785 11.3087 10.7731 11.0185C10.766 10.8066 10.7539 10.5931 10.742 10.3807C10.7361 10.2765 10.7303 10.1726 10.725 10.0692C10.7224 9.96561 10.6868 9.86525 10.623 9.78161C10.5835 9.72873 10.531 9.68609 10.4701 9.65752Z" fill="#3A3B7B"/>
<path d="M12.6298 11.2539C12.6236 11.2614 12.6171 11.2693 12.6102 11.2774C12.5606 11.0026 12.5146 10.7279 12.4685 10.4527C12.452 10.354 12.4354 10.2549 12.4187 10.156L12.4168 10.145L12.4107 10.1355C12.3992 10.1176 12.3981 10.1 12.3981 10.0625V10.0581L12.3974 10.0539C12.3849 9.97642 12.3484 9.90436 12.2927 9.8471C12.2371 9.79 12.1649 9.75026 12.0855 9.73301C12.0062 9.71424 11.9229 9.71837 11.846 9.74491C11.7693 9.77138 11.7025 9.81896 11.6539 9.88167C11.6134 9.9298 11.5803 9.98318 11.5554 10.0402C11.499 10.1631 11.4422 10.2863 11.3851 10.4098L11.3842 10.4119C11.2418 10.7203 11.0985 11.0307 10.9593 11.3436L10.9589 11.3446C10.8734 11.5474 10.8029 11.7612 10.7326 11.9743C10.7186 12.0168 10.7046 12.0593 10.6904 12.1017C10.665 12.169 10.654 12.2404 10.6578 12.3118C10.6531 12.3757 10.6691 12.4395 10.7035 12.4945C10.7385 12.5506 10.7911 12.5948 10.8536 12.6207C10.9199 12.6486 10.9941 12.6546 11.0643 12.6376C11.1344 12.6206 11.1966 12.5818 11.2412 12.5272C11.2981 12.46 11.3471 12.3867 11.387 12.309C11.5049 12.0776 11.6176 11.8433 11.7298 11.61C11.7732 11.5198 11.8153 11.439 11.8633 11.351C11.8666 11.3619 11.8699 11.3725 11.8734 11.3831C11.9237 11.5955 12.0086 11.799 12.1249 11.9861C12.1469 12.0257 12.1776 12.0604 12.2148 12.0876C12.2524 12.1152 12.2959 12.1346 12.3422 12.1444C12.3884 12.1543 12.4363 12.1543 12.4826 12.1446C12.5288 12.1348 12.5724 12.1154 12.6101 12.088L12.6847 12.0344L13.2635 11.5664L13.2293 11.7758C13.1823 12.0636 13.1357 12.349 13.0861 12.6345C13.0537 12.761 13.0538 12.8932 13.0863 13.0196C13.1004 13.0908 13.1362 13.1564 13.1893 13.2079C13.2428 13.2599 13.3114 13.2951 13.3861 13.3092C13.4608 13.3233 13.5382 13.3155 13.6082 13.2868C13.6772 13.2586 13.7359 13.2114 13.7769 13.1512C13.8723 13.0375 13.9317 12.8999 13.948 12.7548C13.9726 12.5498 14.0004 12.342 14.0281 12.1343C14.0601 11.8948 14.0921 11.6555 14.1191 11.4207L14.1192 11.42C14.1452 11.163 14.1578 10.9049 14.1569 10.6467C14.1626 10.5651 14.1415 10.4838 14.0964 10.4144C14.0511 10.3447 13.9841 10.2905 13.9049 10.2594C13.8224 10.2235 13.7302 10.2139 13.6417 10.2321C13.5537 10.2501 13.4741 10.2946 13.4144 10.359C13.3076 10.4538 13.2075 10.5552 13.1146 10.6626L13.1139 10.6634C13.0125 10.7847 12.9118 10.9084 12.8117 11.0313C12.7508 11.106 12.6901 11.1805 12.6298 11.2539Z" fill="#3A3B7B"/>
</g>
<defs>
<clipPath id="clip0_212_1131">
<rect width="15.6917" height="9.68213" fill="white" transform="translate(0.704956 4.03247)"/>
</clipPath>
</defs>
</svg>
