<svg width="17" height="17" viewBox="0 0 17 17" fill="none" xmlns="http://www.w3.org/2000/svg">
<g clip-path="url(#clip0_212_1124)">
<path fill-rule="evenodd" clip-rule="evenodd" d="M5.17755 5.4062L1.84363 8.7066C2.51047 9.36676 3.27224 9.92311 4.10278 10.3584C4.33235 10.9612 4.69219 11.5265 5.18229 12.0117C7.02621 13.8371 10.0157 13.8371 11.8596 12.0117C12.3497 11.5265 12.7096 10.9612 12.9391 10.3583C13.7697 9.92311 14.5315 9.36676 15.1983 8.7066L11.8671 5.40889C11.8646 5.40642 11.8621 5.40395 11.8596 5.40149C10.0157 3.57613 7.02621 3.57613 5.18229 5.40149C5.18071 5.40306 5.17913 5.40463 5.17755 5.4062ZM11.5406 10.9538C10.5691 11.2784 9.54917 11.4446 8.52096 11.4446C7.49275 11.4446 6.47289 11.2784 5.50134 10.9538C5.6066 11.0921 5.72282 11.2248 5.85003 11.3507C7.32515 12.811 9.71677 12.811 11.1919 11.3507C11.3191 11.2248 11.4353 11.0921 11.5406 10.9538ZM5.9185 5.99641C6.169 6.16024 6.43536 6.30043 6.71407 6.41473C7.28692 6.64962 7.9009 6.77052 8.52096 6.77052C9.14102 6.77052 9.755 6.64962 10.3278 6.41473C10.6066 6.30043 10.8729 6.16023 11.1234 5.9964C9.66672 4.62426 7.3752 4.62426 5.9185 5.99641Z" fill="#3B4158"/>
</g>
<defs>
<clipPath id="clip0_212_1124">
<rect width="13.3547" height="9.34826" fill="white" transform="translate(1.84363 4.03247)"/>
</clipPath>
</defs>
</svg>
