<svg width="17" height="17" viewBox="0 0 17 17" fill="none" xmlns="http://www.w3.org/2000/svg">
<g clip-path="url(#clip0_212_1121)">
<path fill-rule="evenodd" clip-rule="evenodd" d="M4.7509 2.08032C6.59477 2.08032 8.08956 3.57509 8.08956 5.41899V2.08032H11.4282C13.2721 2.08032 14.7669 3.57509 14.7669 5.41899C14.7669 7.26287 13.2721 8.75765 11.4282 8.75765C13.2721 8.75765 14.7669 10.2524 14.7669 12.0963C14.7669 13.0119 14.3983 13.8414 13.8015 14.4445L13.789 14.4571L13.7779 14.4681C13.1746 15.0658 12.3446 15.435 11.4282 15.435C10.5181 15.435 9.69309 15.0708 9.09083 14.4803C9.08302 14.4726 9.0752 14.4649 9.06742 14.4571C9.06011 14.4498 9.05283 14.4425 9.04559 14.4351C8.45428 13.8327 8.08956 13.0071 8.08956 12.0963C8.08956 13.9402 6.59477 15.435 4.7509 15.435C2.907 15.435 1.41223 13.9402 1.41223 12.0963V8.75765H4.7509C2.907 8.75765 1.41223 7.26287 1.41223 5.41899C1.41223 3.57509 2.907 2.08032 4.7509 2.08032ZM7.42183 5.41899C7.42183 6.89411 6.22602 8.08992 4.7509 8.08992V2.74806C6.22602 2.74806 7.42183 3.94387 7.42183 5.41899ZM14.0992 12.0963C14.0992 10.6212 12.9033 9.42539 11.4282 9.42539C9.9531 9.42539 8.7573 10.6212 8.7573 12.0963H14.0992ZM2.07996 9.42539V12.0963C2.07996 13.5714 3.27578 14.7673 4.7509 14.7673C6.22602 14.7673 7.42183 13.5714 7.42183 12.0963V9.42539H2.07996ZM8.7573 8.08992V2.74806H11.4282C12.9033 2.74806 14.0992 3.94387 14.0992 5.41899C14.0992 6.89411 12.9033 8.08992 11.4282 8.08992H8.7573Z" fill="#263238"/>
</g>
<defs>
<clipPath id="clip0_212_1121">
<rect width="13.3547" height="13.3547" fill="white" transform="translate(1.41223 2.08032)"/>
</clipPath>
</defs>
</svg>
